<svg width="13" height="13" viewBox="0 0 13 13" fill="none" xmlns="http://www.w3.org/2000/svg">
<path fill-rule="evenodd" clip-rule="evenodd" d="M12.3397 6.76609C12.3397 7.16779 12.2988 7.56893 12.2185 7.95994C12.1402 8.34167 12.0242 8.71644 11.8722 9.0747C11.7237 9.42662 11.5395 9.76575 11.3243 10.082C11.1123 10.3963 10.8681 10.6911 10.5998 10.9599C10.3309 11.2275 10.035 11.471 9.72093 11.6839C9.40363 11.8977 9.06401 12.0816 8.71188 12.2308C8.3531 12.3819 7.97747 12.4978 7.59607 12.576C7.20453 12.6565 6.80193 12.6976 6.39965 12.6976C5.99708 12.6976 5.5945 12.6565 5.20352 12.576C4.82154 12.4978 4.44593 12.3819 4.08743 12.2308C3.73532 12.0816 3.39538 11.8977 3.07808 11.6839C2.76396 11.4711 2.46812 11.2275 2.19982 10.9599C1.93125 10.6911 1.68702 10.3963 1.47471 10.082C1.26066 9.76575 1.07618 9.4266 0.927107 9.0747C0.775106 8.71644 0.658814 8.34165 0.58021 7.95994C0.500745 7.56893 0.460129 7.16779 0.460129 6.76609C0.460129 6.36409 0.500721 5.9621 0.580233 5.57194C0.658838 5.19021 0.775129 4.81486 0.92713 4.45718C1.0762 4.105 1.26068 3.76557 1.47474 3.44928C1.68705 3.13476 1.93128 2.84048 2.19985 2.57142C2.46814 2.30379 2.76398 2.06082 3.0781 1.84823C3.3954 1.63361 3.73535 1.44972 4.08745 1.30026C4.44595 1.14875 4.82154 1.03263 5.20354 0.955022C5.59452 0.875091 5.9971 0.834534 6.39968 0.834534C6.80195 0.834534 7.20453 0.875091 7.59609 0.955022C7.97749 1.03265 8.3531 1.14878 8.7119 1.30026C9.06401 1.4497 9.40365 1.63361 9.72095 1.84823C10.0351 2.06082 10.3309 2.30379 10.5998 2.57142C10.8681 2.84048 11.1123 3.13476 11.3243 3.44928C11.5395 3.76557 11.7237 4.10503 11.8722 4.45718C12.0242 4.81486 12.1402 5.19021 12.2185 5.57194C12.2988 5.9621 12.3397 6.36409 12.3397 6.76609ZM4.23532 2.18448C2.82076 2.8515 1.765 4.15307 1.4358 5.72169C1.56953 5.72285 3.68337 5.7495 6.11886 5.10333C5.24091 3.54571 4.30291 2.27458 4.23532 2.18448ZM6.53913 5.88332C3.92729 6.66412 1.42101 6.60794 1.33111 6.60448C1.32964 6.65892 1.32704 6.71162 1.32704 6.76609C1.32704 8.06736 1.81866 9.25366 2.62672 10.1507C2.62498 10.148 4.01315 7.68883 6.75058 6.8049C6.8167 6.78289 6.884 6.76318 6.9507 6.74408C6.82339 6.45621 6.68443 6.16773 6.53913 5.88332ZM9.74965 2.96445C8.85659 2.1781 7.68396 1.70111 6.39964 1.70111C5.98748 1.70111 5.58751 1.75093 5.20436 1.84303C5.28034 1.94499 6.23315 3.20717 7.10066 4.79777C9.01468 4.08125 9.73716 2.98298 9.74965 2.96445ZM7.29648 7.58341C7.28518 7.58715 7.27388 7.59038 7.26283 7.59442C4.26992 8.63628 3.29254 10.7359 3.28197 10.7589C4.14313 11.4276 5.22325 11.8311 6.39967 11.8311C7.10214 11.8311 7.77127 11.6882 8.38006 11.4296C8.30495 10.9871 8.01027 9.43586 7.29648 7.58341ZM9.23424 10.9668C10.3732 10.1993 11.1822 8.98058 11.4078 7.5689C11.3034 7.53531 9.88421 7.08667 8.2469 7.3488C8.91226 9.17462 9.1826 10.6616 9.23424 10.9668ZM7.4911 5.55255C7.60884 5.7941 7.72285 6.03995 7.82812 6.28704C7.86555 6.37567 7.9021 6.46257 7.93776 6.54944C9.68034 6.33047 11.3971 6.69888 11.4705 6.71392C11.4589 5.51315 11.0288 4.41112 10.317 3.54834C10.3074 3.56192 9.49386 4.73578 7.4911 5.55255Z" fill="white"/>
</svg>
