<svg width="35" height="34" viewBox="0 0 35 34" fill="none" xmlns="http://www.w3.org/2000/svg">
<path d="M19.721 13.6654C19.5038 13.6654 19.3272 13.4891 19.3272 13.2716V12.6025C19.3272 12.3853 19.5035 12.2087 19.721 12.2087C19.9381 12.2087 20.1147 12.385 20.1147 12.6025V13.2716C20.1147 13.4891 19.9382 13.6654 19.721 13.6654Z" fill="#103E13"/>
<path d="M18.0656 13.6654C17.8484 13.6654 17.6718 13.4891 17.6718 13.2716V12.6025C17.6718 12.3853 17.8481 12.2087 18.0656 12.2087C18.2827 12.2087 18.4593 12.385 18.4593 12.6025V13.2716C18.459 13.4891 18.283 13.6654 18.0656 13.6654Z" fill="#103E13"/>
<path d="M16.4103 13.6654C16.1931 13.6654 16.0165 13.4891 16.0165 13.2716V12.6025C16.0165 12.3853 16.1928 12.2087 16.4103 12.2087C16.6275 12.2087 16.804 12.385 16.804 12.6025V13.2716C16.804 13.4891 16.6278 13.6654 16.4103 13.6654Z" fill="#103E13"/>
<path d="M19.721 16.4019C19.5038 16.4019 19.3272 16.2256 19.3272 16.0082V15.3393C19.3272 15.1221 19.5035 14.9456 19.721 14.9456C19.9381 14.9456 20.1147 15.1218 20.1147 15.3393V16.0082C20.1147 16.2256 19.9382 16.4019 19.721 16.4019Z" fill="#103E13"/>
<path d="M18.0656 16.4019C17.8484 16.4019 17.6718 16.2256 17.6718 16.0082V15.3393C17.6718 15.1221 17.8481 14.9456 18.0656 14.9456C18.2827 14.9456 18.4593 15.1218 18.4593 15.3393V16.0082C18.459 16.2256 18.283 16.4019 18.0656 16.4019Z" fill="#103E13"/>
<path d="M16.4103 16.4019C16.1931 16.4019 16.0165 16.2256 16.0165 16.0082V15.3393C16.0165 15.1221 16.1928 14.9456 16.4103 14.9456C16.6275 14.9456 16.804 15.1218 16.804 15.3393V16.0082C16.804 16.2256 16.6278 16.4019 16.4103 16.4019Z" fill="#103E13"/>
<path d="M19.721 19.1383C19.5038 19.1383 19.3272 18.962 19.3272 18.7445V18.0754C19.3272 17.8582 19.5035 17.6816 19.721 17.6816C19.9381 17.6816 20.1147 17.8579 20.1147 18.0754V18.7445C20.1147 18.962 19.9382 19.1383 19.721 19.1383Z" fill="#103E13"/>
<path d="M18.0656 19.1383C17.8484 19.1383 17.6718 18.962 17.6718 18.7445V18.0754C17.6718 17.8582 17.8481 17.6816 18.0656 17.6816C18.2827 17.6816 18.4593 17.8579 18.4593 18.0754V18.7445C18.459 18.962 18.283 19.1383 18.0656 19.1383Z" fill="#103E13"/>
<path d="M16.4103 19.1383C16.1931 19.1383 16.0165 18.962 16.0165 18.7445V18.0754C16.0165 17.8582 16.1928 17.6816 16.4103 17.6816C16.6275 17.6816 16.804 17.8579 16.804 18.0754V18.7445C16.804 18.962 16.6278 19.1383 16.4103 19.1383Z" fill="#103E13"/>
<path d="M19.721 21.8741C19.5038 21.8741 19.3272 21.6978 19.3272 21.4804V20.8112C19.3272 20.594 19.5035 20.4175 19.721 20.4175C19.9381 20.4175 20.1147 20.5938 20.1147 20.8112V21.4804C20.1147 21.6978 19.9382 21.8741 19.721 21.8741Z" fill="#103E13"/>
<path d="M18.0656 21.8741C17.8484 21.8741 17.6718 21.6978 17.6718 21.4804V20.8112C17.6718 20.594 17.8481 20.4175 18.0656 20.4175C18.2827 20.4175 18.4593 20.5938 18.4593 20.8112V21.4804C18.459 21.6978 18.283 21.8741 18.0656 21.8741Z" fill="#103E13"/>
<path d="M16.4103 21.8741C16.1931 21.8741 16.0165 21.6978 16.0165 21.4804V20.8112C16.0165 20.594 16.1928 20.4175 16.4103 20.4175C16.6275 20.4175 16.804 20.5938 16.804 20.8112V21.4804C16.804 21.6978 16.6278 21.8741 16.4103 21.8741Z" fill="#103E13"/>
<path d="M19.721 24.6107C19.5038 24.6107 19.3272 24.4344 19.3272 24.2169V23.548C19.3272 23.3309 19.5035 23.1543 19.721 23.1543C19.9381 23.1543 20.1147 23.3306 20.1147 23.548V24.2169C20.1147 24.4341 19.9382 24.6107 19.721 24.6107Z" fill="#103E13"/>
<path d="M18.0656 24.6107C17.8484 24.6107 17.6718 24.4344 17.6718 24.2169V23.548C17.6718 23.3309 17.8481 23.1543 18.0656 23.1543C18.2827 23.1543 18.4593 23.3306 18.4593 23.548V24.2169C18.459 24.4341 18.283 24.6107 18.0656 24.6107Z" fill="#103E13"/>
<path d="M16.4103 24.6107C16.1931 24.6107 16.0165 24.4344 16.0165 24.2169L16.0168 23.548C16.0168 23.3309 16.1931 23.1543 16.4106 23.1543C16.6278 23.1543 16.8043 23.3306 16.8043 23.548V24.2169C16.804 24.4341 16.6278 24.6107 16.4103 24.6107Z" fill="#103E13"/>
<path d="M5.16207 27.3337C5.16207 27.5509 5.33835 27.7275 5.55582 27.7275H29.5338C29.751 27.7275 29.9276 27.5512 29.9276 27.3337C29.9276 27.1165 29.7513 26.94 29.5338 26.94H28.806V15.6349C28.806 15.4177 28.6297 15.2412 28.4122 15.2412L21.9835 15.2414V7.09108C21.9835 6.95324 21.9116 6.82584 21.7941 6.75444C21.6768 6.68278 21.5302 6.67838 21.4083 6.74181L14.0993 10.5472C13.9689 10.615 13.8876 10.7496 13.8876 10.8965V18.0157H6.81413C6.59694 18.0157 6.42038 18.1919 6.42038 18.4094V26.9401H5.55494C5.33776 26.9398 5.16174 27.1161 5.16174 27.3335L5.16207 27.3337ZM21.9837 21.2049H28.0189V26.9403L21.9837 26.94V21.2049ZM21.9837 18.4687H28.0189V20.4177L21.9837 20.4174V18.4687ZM21.9837 16.0285H28.0189V17.6818H21.9837V16.0285ZM14.6747 11.1356L21.1959 7.7401V26.9397H14.6747V11.1356ZM9.15431 23.7952C9.15431 22.978 9.80176 22.313 10.5978 22.313C11.3938 22.313 12.0415 22.9777 12.0415 23.7952V26.9402H9.15431V23.7952ZM7.20785 18.803H13.8875V26.94H12.829V23.795C12.829 22.5438 11.8284 21.5256 10.5978 21.5256C9.36765 21.5256 8.36711 22.5435 8.36711 23.795V26.94H7.20785V18.803Z" fill="#103E13"/>
</svg>
