<svg width="12" height="13" viewBox="0 0 12 13" fill="none" xmlns="http://www.w3.org/2000/svg">
<path fill-rule="evenodd" clip-rule="evenodd" d="M5.98913 0.834534C4.37597 0.834534 4.17352 0.841587 3.53993 0.87042C2.90759 0.899377 2.47596 0.999488 2.09828 1.14638C1.70761 1.29809 1.37622 1.50103 1.04606 1.83132C0.715655 2.16147 0.51271 2.49287 0.360501 2.88341C0.213242 3.26121 0.113007 3.69296 0.0845452 4.32506C0.0562072 4.95865 0.0487823 5.16122 0.0487823 6.77439C0.0487823 8.38755 0.0559597 8.58938 0.084669 9.22297C0.11375 9.85532 0.213861 10.2869 0.360625 10.6646C0.512462 11.0553 0.715407 11.3867 1.04569 11.7168C1.37572 12.0472 1.70712 12.2507 2.09754 12.4024C2.47546 12.5493 2.90721 12.6494 3.53944 12.6784C4.17302 12.7072 4.37535 12.7142 5.98839 12.7142C7.60168 12.7142 7.80351 12.7072 8.4371 12.6784C9.06944 12.6494 9.50157 12.5493 9.87949 12.4024C10.27 12.2507 10.6009 12.0472 10.931 11.7168C11.2614 11.3867 11.4643 11.0553 11.6165 10.6647C11.7625 10.2869 11.8628 9.85519 11.8925 9.22309C11.9209 8.58951 11.9284 8.38755 11.9284 6.77439C11.9284 5.16122 11.9209 4.95877 11.8925 4.32519C11.8628 3.69284 11.7625 3.26121 11.6165 2.88354C11.4643 2.49287 11.2614 2.16147 10.931 1.83132C10.6006 1.50091 10.2702 1.29797 9.87912 1.14638C9.50045 0.999488 9.06858 0.899377 8.43623 0.87042C7.80264 0.841587 7.60094 0.834534 5.98728 0.834534H5.98913ZM5.45625 1.90493C5.6144 1.90468 5.79086 1.90493 5.98911 1.90493C7.57505 1.90493 7.76302 1.91062 8.3893 1.93908C8.96844 1.96556 9.28276 2.06233 9.49214 2.14364C9.76933 2.2513 9.96695 2.37999 10.1747 2.58789C10.3826 2.79578 10.5113 2.99378 10.6192 3.27097C10.7005 3.4801 10.7974 3.79442 10.8238 4.37356C10.8522 4.99972 10.8584 5.18781 10.8584 6.77301C10.8584 8.35821 10.8522 8.5463 10.8238 9.17246C10.7973 9.7516 10.7005 10.0659 10.6192 10.2751C10.5116 10.5522 10.3826 10.7496 10.1747 10.9574C9.96683 11.1653 9.76945 11.294 9.49214 11.4016C9.283 11.4833 8.96844 11.5798 8.3893 11.6063C7.76314 11.6348 7.57505 11.641 5.98911 11.641C4.40304 11.641 4.21507 11.6348 3.58891 11.6063C3.00977 11.5796 2.69546 11.4828 2.48595 11.4015C2.20876 11.2939 2.01077 11.1652 1.80287 10.9573C1.59498 10.7494 1.46628 10.5519 1.35837 10.2746C1.27707 10.0654 1.18018 9.75111 1.15382 9.17197C1.12536 8.54581 1.11966 8.35771 1.11966 6.77153C1.11966 5.18534 1.12536 4.99823 1.15382 4.37207C1.1803 3.79294 1.27707 3.47862 1.35837 3.26924C1.46603 2.99205 1.59498 2.79405 1.80287 2.58616C2.01077 2.37826 2.20876 2.24956 2.48595 2.14166C2.69533 2.05998 3.00977 1.96346 3.58891 1.93685C4.13686 1.91211 4.34921 1.90468 5.45625 1.90344V1.90493ZM9.15976 2.89119C8.76624 2.89119 8.44697 3.21009 8.44697 3.60373C8.44697 3.99724 8.76624 4.31651 9.15976 4.31651C9.55327 4.31651 9.87254 3.99724 9.87254 3.60373C9.87254 3.21021 9.55327 2.89119 9.15976 2.89119ZM5.98914 3.72401C4.30457 3.72401 2.93878 5.0898 2.93878 6.77437C2.93878 8.45894 4.30457 9.82412 5.98914 9.82412C7.67371 9.82412 9.03901 8.45894 9.03901 6.77437C9.03901 5.0898 7.67371 3.72401 5.98914 3.72401ZM5.98912 4.79442C7.08255 4.79442 7.96907 5.68082 7.96907 6.77437C7.96907 7.8678 7.08255 8.75432 5.98912 8.75432C4.89557 8.75432 4.00917 7.8678 4.00917 6.77437C4.00917 5.68082 4.89557 4.79442 5.98912 4.79442Z" fill="white"/>
</svg>
