<svg width="39" height="34" viewBox="0 0 39 34" fill="none" xmlns="http://www.w3.org/2000/svg">
<g clip-path="url(#clip0_211_2052)">
<path d="M38.5803 13.95C38.5842 13.921 38.5842 13.8916 38.5803 13.8626C38.584 13.839 38.584 13.8149 38.5803 13.7912L38.2966 11.7498C38.2557 11.5056 38.1463 11.2773 37.9807 11.0906L37.932 11.035L37.843 10.9476L32.9332 6.80139L33.0709 6.93643C32.9582 6.80426 32.8168 6.69854 32.6569 6.62706C32.4971 6.55558 32.3229 6.52016 32.1473 6.5234H30.6565C30.4141 6.51869 30.1772 6.59425 29.984 6.73786C29.7812 6.59512 29.537 6.51994 29.2873 6.5234H27.7965C27.601 6.52029 27.4081 6.56786 27.2374 6.66131C27.0667 6.75476 26.9242 6.89077 26.8243 7.05557C26.6703 7.29095 26.6125 7.57454 26.6622 7.84986L26.8486 9.13661C26.7251 9.068 26.5854 9.0324 26.4435 9.03336H19.2246C18.9656 9.03495 18.7126 9.10938 18.4954 9.24781C18.2855 9.37666 18.1169 9.56117 18.0093 9.77998L17.4503 9.31135C17.2303 9.11177 16.9398 9.00359 16.6401 9.00953H5.31357C5.05365 9.01417 4.7995 9.08536 4.57631 9.21604C4.27097 9.39125 4.04719 9.67614 3.95245 10.0103L0.355175 21.8055C0.287961 21.9999 0.281349 22.2095 0.336186 22.4076C0.391022 22.6056 0.504824 22.7832 0.663053 22.9176C0.704282 22.9518 0.747573 22.9837 0.792687 23.0128C0.792687 23.0128 0.719758 22.9652 0.679248 22.9255L5.58906 27.0796C5.79675 27.2671 6.0683 27.3719 6.35059 27.3735H17.7663C18.027 27.3669 18.2813 27.2929 18.5036 27.159C18.6293 27.0917 18.7417 27.0029 18.8357 26.8969L18.8763 26.8413L18.9411 26.7619L18.9897 26.6745L19.5244 27.1273C19.7291 27.3073 19.9948 27.4063 20.2698 27.4053H31.7097C31.9702 27.3968 32.224 27.323 32.447 27.1908C32.5699 27.1193 32.6817 27.0311 32.7792 26.9287L32.8197 26.8731L32.8845 26.7937C32.919 26.7434 32.9489 26.6903 32.9736 26.6348C33.0001 26.5866 33.0218 26.5361 33.0385 26.4839L36.3198 15.7133V15.618C36.3238 15.5811 36.3238 15.5438 36.3198 15.5068V15.4354C36.3237 15.4117 36.3237 15.3875 36.3198 15.3638C36.3234 15.3136 36.3234 15.2632 36.3198 15.2129H37.373C37.4646 15.2212 37.5569 15.2212 37.6485 15.2129H37.7214C37.7807 15.1956 37.8378 15.1716 37.8916 15.1414H37.9726L38.1184 15.0302L38.1832 14.9826L38.2966 14.8396V14.792L38.3777 14.6569C38.3731 14.6307 38.3731 14.6038 38.3777 14.5775C38.3734 14.5646 38.3734 14.5507 38.3777 14.5378C38.3949 14.4912 38.4085 14.4434 38.4182 14.3948C38.4144 14.3791 38.4144 14.3628 38.4182 14.3471C38.4142 14.3235 38.4142 14.2993 38.4182 14.2757C38.4182 14.2757 38.5803 13.9659 38.5803 13.95Z" fill="black"/>
<path d="M16.9723 9.91505C17.0153 9.95318 17.0453 10.0033 17.0584 10.0587C17.0714 10.1141 17.0668 10.1721 17.0452 10.2248L13.4561 22.0121C13.4109 22.1408 13.3184 22.2484 13.1968 22.3139C13.0978 22.3788 12.9833 22.4171 12.8646 22.4251H1.45705C1.35963 22.4205 1.26733 22.381 1.19778 22.3139C1.15641 22.2764 1.12737 22.2276 1.11438 22.1739C1.10139 22.1201 1.10505 22.0638 1.12487 22.0121L4.72214 10.2248C4.76358 10.0945 4.85314 9.98404 4.97329 9.91505C5.07388 9.85482 5.18787 9.81939 5.30548 9.81179H16.713C16.8097 9.8127 16.9024 9.84962 16.9723 9.91505ZM11.0173 19.6372L13.1644 12.5997H7.15274L5.0138 19.6372H11.0173ZM27.8613 10.0342C27.9002 10.0785 27.9489 10.1137 28.0036 10.1371C28.0583 10.1605 28.1177 10.1714 28.1773 10.1692H29.66C29.7164 10.1698 29.772 10.1562 29.8217 10.1298C29.8713 10.1034 29.9132 10.065 29.9435 10.0183C29.9698 9.98182 29.9885 9.94052 29.9982 9.89686C30.0079 9.8532 30.0086 9.80807 30.0002 9.76414L29.7086 7.66721C29.6808 7.57016 29.6309 7.48054 29.5628 7.40509C29.5238 7.36075 29.4752 7.32558 29.4205 7.30221C29.3658 7.27883 29.3064 7.26785 29.2468 7.27006H27.7641C27.7076 7.26953 27.652 7.2831 27.6024 7.30951C27.5528 7.33591 27.5108 7.37428 27.4805 7.42098C27.4238 7.53218 27.3995 7.60367 27.4238 7.66721L27.7236 9.76414C27.739 9.86624 27.7872 9.96085 27.8613 10.0342ZM32.5686 7.65132C32.5408 7.55427 32.4909 7.46465 32.4227 7.38921C32.3854 7.34503 32.3382 7.30987 32.2848 7.28645C32.2315 7.26304 32.1733 7.25199 32.1149 7.25418H30.6241C30.5686 7.25263 30.5136 7.26584 30.4651 7.2924C30.4166 7.31897 30.3764 7.35791 30.3486 7.40509C30.2947 7.47556 30.2714 7.56407 30.2838 7.65132L30.5836 9.74825C30.6024 9.84927 30.6501 9.94295 30.7213 10.0183C30.7609 10.0618 30.8097 10.0964 30.8643 10.1197C30.9188 10.143 30.9778 10.1544 31.0373 10.1533H32.5281C32.5835 10.154 32.638 10.1405 32.6863 10.114C32.7347 10.0875 32.7751 10.049 32.8035 10.0024C32.8317 9.96689 32.8514 9.9256 32.8612 9.88162C32.8711 9.83765 32.8707 9.79208 32.8602 9.74825L32.5686 7.65132ZM26.5569 10.8285L26.411 9.7959H19.2246C19.1118 9.802 19.0026 9.83766 18.9086 9.89916C18.849 9.93106 18.797 9.97528 18.7565 10.0288C18.7159 10.0822 18.6877 10.1437 18.6737 10.2089L18.0742 12.1788C18.0502 12.228 18.042 12.2832 18.0507 12.3371C18.0594 12.391 18.0845 12.441 18.1228 12.4806C18.1911 12.5436 18.2803 12.5803 18.3739 12.5839H27.1079L24.9608 19.6213H16.2512C16.1389 19.6238 16.0295 19.6568 15.9353 19.7166C15.8207 19.7879 15.737 19.8982 15.7003 20.0263L15.0926 21.9962C15.0728 22.0467 15.0676 22.1017 15.0776 22.1549C15.0876 22.2082 15.1124 22.2577 15.1493 22.298C15.2155 22.3652 15.3054 22.405 15.4005 22.4092H26.8405C26.9588 22.3992 27.0728 22.3611 27.1726 22.298C27.2923 22.2321 27.382 22.1243 27.4238 21.9962L30.7132 11.2256H27.0106C26.9519 11.2268 26.8935 11.2161 26.8392 11.1942C26.7848 11.1724 26.7357 11.1398 26.6947 11.0985C26.6277 11.0265 26.5803 10.9391 26.5569 10.8444V10.8285Z" fill="white"/>
</g>
<defs>
<clipPath id="clip0_211_2052">
<rect width="38.2838" height="20.8821" fill="white" transform="translate(0.299408 6.52319)"/>
</clipPath>
</defs>
</svg>
