<svg width="29" height="20" viewBox="0 0 29 20" fill="none" xmlns="http://www.w3.org/2000/svg">
<g clip-path="url(#clip0_211_2073)">
<path d="M27.0806 1.50259C27.0806 1.82695 27.3468 2.0899 27.6752 2.0899H28.2697C28.5981 2.0899 28.8643 1.82695 28.8643 1.50259C28.8643 1.17823 28.5981 0.915283 28.2697 0.915283H27.6752C27.3468 0.915283 27.0806 1.17823 27.0806 1.50259Z" fill="#212326"/>
<path d="M9.83839 19.7092H12.7267L11.8858 18.8786C11.6628 18.6583 11.3604 18.5345 11.045 18.5345H9.83839C5.24126 18.5345 1.51456 14.8533 1.51456 10.3122C1.51456 5.77115 5.24126 2.08991 9.83839 2.0899H19.3513C23.9485 2.0899 27.6752 5.77115 27.6752 10.3122C27.6752 14.8533 23.9485 18.5345 19.3513 18.5345H15.7927C15.3197 18.5345 14.866 18.3489 14.5315 18.0185L13.5464 17.0454C12.9889 16.4947 12.2327 16.1853 11.4443 16.1853H9.83839C6.55471 16.1853 3.8928 13.5559 3.8928 10.3122C3.8928 7.06859 6.55471 4.43913 9.83839 4.43913H19.3513C22.635 4.43913 25.2969 7.06859 25.2969 10.3122C25.2969 13.5559 22.635 16.1853 19.3513 16.1853H17.0664C16.5933 16.1853 16.1396 15.9997 15.8051 15.6693L14.82 14.6962C14.2625 14.1455 13.5063 13.8361 12.7179 13.8361H9.83839C7.86821 13.8361 6.27103 12.2584 6.27103 10.3122C6.27103 8.36607 7.86821 6.78837 9.83839 6.78837H19.3513C21.3215 6.78837 22.9187 8.36607 22.9187 10.3122C22.9187 12.2346 21.3602 13.7975 19.4233 13.8354L19.4229 13.8361H18.5528C18.0797 13.8361 17.626 13.6504 17.2915 13.32L16.3064 12.3469C15.849 11.895 15.2578 11.6057 14.6247 11.5163L14.5949 11.4868H9.83839C9.18166 11.4868 8.64927 10.9609 8.64927 10.3122C8.64927 9.6635 9.18166 9.1376 9.83839 9.1376H19.3513C20.0081 9.1376 20.5405 9.6635 20.5405 10.3122C20.5405 10.9609 20.0081 11.4868 19.3513 11.4868H16.9731L17.814 12.3174C18.0369 12.5377 18.3394 12.6615 18.6548 12.6615H19.3513C20.6648 12.6615 21.7296 11.6097 21.7296 10.3122C21.7296 9.01479 20.6648 7.96299 19.3513 7.96299H9.83839C8.52494 7.96299 7.46015 9.01479 7.46015 10.3122C7.46015 11.6097 8.52494 12.6615 9.83839 12.6615H14.2043C14.6774 12.6615 15.1311 12.8471 15.4656 13.1775L16.4507 14.1506C17.0082 14.7013 17.7643 15.0107 18.5528 15.0107H19.6486V15.0017C22.1371 14.8501 24.1078 12.8085 24.1078 10.3122C24.1078 7.71735 21.9782 5.61375 19.3513 5.61375H9.83839C7.21148 5.61375 5.08191 7.71735 5.08191 10.3122C5.08191 12.9071 7.21148 15.0107 9.83839 15.0107H12.7179C13.191 15.0107 13.6447 15.1963 13.9792 15.5267L14.9643 16.4998C15.5218 17.0505 16.2779 17.3599 17.0664 17.3599H19.3513C23.2917 17.3599 26.4861 14.2046 26.4861 10.3122C26.4861 6.41987 23.2917 3.26452 19.3513 3.26452H9.83839C5.89798 3.26452 2.70368 6.41987 2.70368 10.3122C2.70368 14.2046 5.89798 17.3599 9.83839 17.3599H11.4443C11.9173 17.3599 12.371 17.5456 12.7055 17.876L13.6907 18.8491C14.2482 19.3998 15.0043 19.7092 15.7927 19.7092H19.3513C24.6052 19.7092 28.8643 15.502 28.8643 10.3122C28.8643 5.12243 24.6052 0.915283 19.3513 0.915283L9.83839 0.915285C4.58453 0.915286 0.325439 5.12244 0.325439 10.3122C0.32544 15.502 4.58453 19.7092 9.83839 19.7092Z" fill="#212326"/>
</g>
<defs>
<clipPath id="clip0_211_2073">
<rect width="28.5388" height="18.7939" fill="white" transform="translate(0.325439 0.915283)"/>
</clipPath>
</defs>
</svg>
