<svg width="28" height="20" viewBox="0 0 28 20" fill="none" xmlns="http://www.w3.org/2000/svg">
<g clip-path="url(#clip0_211_2050)">
<path fill-rule="evenodd" clip-rule="evenodd" d="M7.04589 3.0833L0.0950928 9.96421C1.48538 11.3405 3.07357 12.5005 4.80514 13.4079C5.28376 14.6648 6.03398 15.8434 7.05579 16.8549C10.9001 20.6606 17.1329 20.6606 20.9772 16.8549C21.999 15.8434 22.7492 14.6648 23.2278 13.4079C24.9594 12.5005 26.5476 11.3405 27.9379 9.96421L20.9927 3.08889C20.9875 3.08375 20.9824 3.07861 20.9772 3.07347C17.1329 -0.732172 10.9001 -0.732172 7.05579 3.07347C7.0525 3.07675 7.04919 3.08002 7.04589 3.0833ZM20.3121 14.6494C18.2865 15.3261 16.1602 15.6727 14.0165 15.6727C11.8728 15.6727 9.74651 15.3261 7.72095 14.6494C7.94042 14.9376 8.18272 15.2142 8.44793 15.4768C11.5234 18.5213 16.5096 18.5213 19.585 15.4768C19.8502 15.2142 20.0926 14.9376 20.3121 14.6494ZM8.59069 4.3138C9.11295 4.65536 9.66828 4.94765 10.2494 5.18594C11.4437 5.67567 12.7237 5.92773 14.0165 5.92773C15.3092 5.92773 16.5893 5.67567 17.7836 5.18594C18.3647 4.94765 18.92 4.65536 19.4423 4.31378C16.4053 1.45304 11.6277 1.45305 8.59069 4.3138Z" fill="#3B4158"/>
</g>
<defs>
<clipPath id="clip0_211_2050">
<rect width="27.8428" height="19.4899" fill="white" transform="translate(0.0950928 0.219238)"/>
</clipPath>
</defs>
</svg>
