<svg width="28" height="28" viewBox="0 0 28 28" fill="none" xmlns="http://www.w3.org/2000/svg">
<g clip-path="url(#clip0_211_2047)">
<path fill-rule="evenodd" clip-rule="evenodd" d="M6.97907 0.149414C10.8233 0.149414 13.9398 3.26582 13.9398 7.11011V0.149414H20.9005C24.7447 0.149414 27.8612 3.26582 27.8612 7.11011C27.8612 10.9544 24.7447 14.0708 20.9005 14.0708C24.7447 14.0708 27.8612 17.1872 27.8612 21.0315C27.8612 22.9403 27.0928 24.6697 25.8485 25.9272L25.8224 25.9535L25.7993 25.9764C24.5415 27.2225 22.8109 27.9922 20.9005 27.9922C19.003 27.9922 17.2829 27.233 16.0273 26.0018C16.011 25.9858 15.9947 25.9696 15.9785 25.9535C15.9632 25.9382 15.9481 25.9229 15.933 25.9075C14.7001 24.6517 13.9398 22.9304 13.9398 21.0315C13.9398 24.8758 10.8233 27.9922 6.97907 27.9922C3.13478 27.9922 0.0183716 24.8758 0.0183716 21.0315V14.0708H6.97907C3.13478 14.0708 0.0183716 10.9544 0.0183716 7.11011C0.0183716 3.26582 3.13478 0.149414 6.97907 0.149414ZM12.5476 7.11011C12.5476 10.1856 10.0545 12.6787 6.97907 12.6787V1.54155C10.0545 1.54155 12.5476 4.03468 12.5476 7.11011ZM26.469 21.0315C26.469 17.9561 23.9759 15.4629 20.9005 15.4629C17.825 15.4629 15.3319 17.9561 15.3319 21.0315H26.469ZM1.41051 15.4629V21.0315C1.41051 24.1069 3.90364 26.6001 6.97907 26.6001C10.0545 26.6001 12.5476 24.1069 12.5476 21.0315V15.4629H1.41051ZM15.3319 12.6787V1.54155H20.9005C23.9759 1.54155 26.469 4.03468 26.469 7.11011C26.469 10.1856 23.9759 12.6787 20.9005 12.6787H15.3319Z" fill="#263238"/>
</g>
<defs>
<clipPath id="clip0_211_2047">
<rect width="27.8428" height="27.8428" fill="white" transform="translate(0.0183716 0.149414)"/>
</clipPath>
</defs>
</svg>
