<svg width="12" height="10" viewBox="0 0 12 10" fill="none" xmlns="http://www.w3.org/2000/svg">
<path fill-rule="evenodd" clip-rule="evenodd" d="M5.47769 2.68957L5.50106 3.07494L5.11155 3.02776C3.69374 2.84687 2.4551 2.23342 1.40343 1.20315L0.889276 0.691947L0.756843 1.06945C0.476396 1.91097 0.655571 2.79968 1.23983 3.3974C1.55144 3.72771 1.48133 3.7749 0.943807 3.57828C0.756843 3.51537 0.593249 3.46818 0.577669 3.49177C0.523137 3.54682 0.710102 4.26251 0.858115 4.54564C1.06066 4.93887 1.47354 5.32424 1.92537 5.55232L2.30709 5.73321L1.85526 5.74107C1.41901 5.74107 1.40343 5.74893 1.45017 5.91409C1.60597 6.4253 2.2214 6.96796 2.90693 7.2039L3.38992 7.36906L2.96925 7.62073C2.34604 7.9825 1.61376 8.18698 0.881486 8.20271C0.530928 8.21058 0.242691 8.24204 0.242691 8.26563C0.242691 8.34428 1.19309 8.7847 1.7462 8.95772C3.4055 9.46893 5.37642 9.24872 6.85655 8.37574C7.90823 7.75443 8.9599 6.51967 9.45068 5.32424C9.71555 4.6872 9.98041 3.52323 9.98041 2.96484C9.98041 2.60306 10.0038 2.55588 10.44 2.12332C10.6971 1.87165 10.9386 1.59638 10.9853 1.51774C11.0632 1.36831 11.0555 1.36831 10.6582 1.50201C9.996 1.73795 9.90251 1.70649 10.2297 1.35258C10.4712 1.10091 10.7594 0.644759 10.7594 0.511059C10.7594 0.487465 10.6426 0.526789 10.5101 0.597571C10.3699 0.676217 10.0583 0.794188 9.82461 0.86497L9.40394 0.998669L9.02222 0.739135C8.81189 0.597571 8.51586 0.440277 8.36006 0.393089C7.96276 0.282984 7.35512 0.298713 6.99678 0.424548C6.023 0.778458 5.40758 1.69076 5.47769 2.68957Z" fill="white"/>
</svg>
