<svg width="34" height="34" viewBox="0 0 34 34" fill="none" xmlns="http://www.w3.org/2000/svg">
<path d="M16.8104 7.44165C14.3246 7.44165 12.3009 9.48384 12.3009 11.9803C12.3009 13.5595 13.1119 14.954 14.3365 15.7667C12.8574 16.2613 11.5776 17.1856 10.6389 18.3948C10.12 17.9956 9.5401 17.6746 8.91498 17.4445C9.86293 16.7408 10.4824 15.6103 10.4824 14.3397C10.4824 12.2224 8.77001 10.4892 6.66558 10.4892C4.56114 10.4892 2.84875 12.2224 2.84875 14.3397C2.84875 15.611 3.46874 16.742 4.41749 17.4458C1.90567 18.3727 0.111755 20.7994 0.111755 23.6554V25.6616C0.112012 25.8145 0.173188 25.961 0.281658 26.0687C0.390127 26.1767 0.5369 26.2368 0.689839 26.2363H9.49161C9.51295 26.2386 9.53428 26.2399 9.55562 26.2397H24.0658C24.0871 26.2399 24.1087 26.2386 24.1298 26.2363H32.9322C33.2486 26.235 33.5049 25.9782 33.5057 25.6616V23.6554C33.5057 20.7994 31.7148 18.3727 29.2043 17.4455C30.1531 16.742 30.7731 15.6107 30.7731 14.3394C30.7731 12.2222 29.0607 10.4889 26.9563 10.4889C24.8519 10.4889 23.1394 12.2222 23.1394 14.3394C23.1394 15.61 23.7592 16.7407 24.7071 17.4443C24.0807 17.6748 23.5006 17.9969 22.9809 18.3971C22.0426 17.1872 20.7646 16.2616 19.2856 15.7667C20.5099 14.954 21.3212 13.5595 21.3212 11.9803C21.3212 9.48384 19.2964 7.44165 16.8106 7.44165H16.8104ZM16.8104 8.5932C18.6696 8.5932 20.1684 10.1021 20.1684 11.9803C20.1684 13.8438 18.693 15.338 16.8544 15.3619C16.8398 15.3619 16.8254 15.3599 16.8104 15.3599C16.7955 15.3599 16.7814 15.3619 16.7665 15.3619C14.9279 15.3383 13.4535 13.8439 13.4535 11.9803C13.4535 10.1018 14.951 8.5932 16.8102 8.5932H16.8104ZM6.66564 11.6407C8.14081 11.6407 9.33092 12.8379 9.33092 14.3396C9.33092 15.8312 8.1562 17.0234 6.69492 17.0396C6.68516 17.0396 6.67565 17.0385 6.66562 17.0385C6.65585 17.0385 6.64634 17.0396 6.63632 17.0396C5.17504 17.0234 4.00033 15.831 4.00033 14.3396C4.00033 12.838 5.19043 11.6407 6.6656 11.6407H6.66564ZM26.9559 11.6407C28.4311 11.6407 29.6212 12.8379 29.6212 14.3396C29.6212 15.8312 28.4465 17.0234 26.9852 17.0396C26.9754 17.0396 26.9659 17.0385 26.9559 17.0385C26.9461 17.0385 26.9366 17.0396 26.9266 17.0396C25.4653 17.0234 24.2906 15.831 24.2906 14.3396C24.2906 12.838 25.4807 11.6407 26.9559 11.6407H26.9559ZM16.7664 16.5134C16.781 16.5137 16.7954 16.5155 16.8103 16.5155C16.825 16.5155 16.8394 16.5134 16.8543 16.5134C20.5415 16.5371 23.4924 19.5134 23.4924 23.2391L23.4922 25.0878H10.129V23.2391C10.129 19.513 13.079 16.5371 16.7658 16.5134H16.7664ZM6.62155 18.1924C6.63621 18.1927 6.6506 18.1945 6.66551 18.1945C6.68042 18.1945 6.69455 18.1924 6.70946 18.1924C7.95662 18.2025 9.09481 18.6325 10.0011 19.3519C9.35259 20.4994 8.97755 21.8239 8.97755 23.2394V25.0837H1.26284V23.6553C1.26284 20.6273 3.64358 18.2161 6.62142 18.1922L6.62155 18.1924ZM26.9118 18.1924C26.9267 18.1927 26.9409 18.1945 26.9558 18.1945C26.9707 18.1945 26.9848 18.1924 26.9997 18.1924C29.9776 18.2161 32.3583 20.6277 32.3583 23.6556V25.0837H24.6397L24.6394 23.2394C24.6394 21.8247 24.2654 20.5012 23.6181 19.354C24.5247 18.6335 25.6637 18.2024 26.9119 18.1924H26.9118Z" fill="#103E13"/>
</svg>
