<svg width="37" height="14" viewBox="0 0 37 14" fill="none" xmlns="http://www.w3.org/2000/svg">
<g clip-path="url(#clip0_211_2077)">
<path d="M8.81751 0.00366211C7.40398 0.00366211 6.04836 0.565181 5.04885 1.5647L1.78686 4.82668C0.787349 5.82619 0.22583 7.18181 0.22583 8.59534C0.22583 11.5389 2.61202 13.9251 5.55554 13.9251C6.96907 13.9251 8.32469 13.3635 9.3242 12.364L11.5805 10.1077C11.5805 10.1076 11.5806 10.1077 11.5805 10.1077L18.1547 3.53348C18.6321 3.05612 19.2795 2.78794 19.9546 2.78794C21.0849 2.78794 22.0431 3.52457 22.3753 4.54392L24.4501 2.46912C23.5036 0.98667 21.8439 0.00366211 19.9546 0.00366211C18.5411 0.00366211 17.1855 0.565181 16.186 1.5647L7.35544 10.3952C6.87807 10.8726 6.23064 11.1408 5.55554 11.1408C4.14973 11.1408 3.01011 10.0012 3.01011 8.59534C3.01011 7.92025 3.27828 7.27281 3.75564 6.79544L7.01761 3.53348C7.49498 3.05612 8.14241 2.78794 8.81751 2.78794C9.94779 2.78794 10.9059 3.5246 11.2382 4.54399L13.313 2.46917C12.3665 0.986698 10.7068 0.00366211 8.81751 0.00366211Z" fill="#394149"/>
<path d="M18.4925 10.3952C18.0152 10.8726 17.3677 11.1408 16.6926 11.1408C15.5626 11.1408 14.6044 10.4043 14.2721 9.38515L12.1974 11.4599C13.1439 12.9422 14.8035 13.9251 16.6926 13.9251C18.1062 13.9251 19.4618 13.3635 20.4613 12.364L29.2918 3.53348C29.7692 3.05612 30.4166 2.78794 31.0917 2.78794C32.4976 2.78794 33.6372 3.92756 33.6372 5.33337C33.6372 6.00847 33.369 6.65591 32.8916 7.13327L29.6297 10.3952C29.1523 10.8726 28.5049 11.1408 27.8298 11.1408C26.6996 11.1408 25.7414 10.4042 25.4092 9.38492L23.3344 11.4597C24.2809 12.9421 25.9405 13.9251 27.8298 13.9251C29.2433 13.9251 30.5989 13.3635 31.5984 12.364L34.8604 9.10203C35.8599 8.10252 36.4214 6.7469 36.4214 5.33337C36.4214 2.38985 34.0353 0.00366211 31.0917 0.00366211C29.6782 0.00366211 28.3226 0.565181 27.3231 1.5647L18.4925 10.3952Z" fill="#394149"/>
</g>
<defs>
<clipPath id="clip0_211_2077">
<rect width="36.1956" height="13.9214" fill="white" transform="translate(0.22583 0.00366211)"/>
</clipPath>
</defs>
</svg>
